{
  "accessors": [
    {
      "bufferView": 2,
      "componentType": 5126,
      "count": 672,
      "max": [
        52.421058654785156,
        2.2634549140930176,
        207.17120361328125
      ],
      "min": [
        -52.421058654785156,
        -14.64101505279541,
        -0.0086359996348619461
      ],
      "type": "VEC3"
    },
    {
      "bufferView": 2,
      "byteOffset": 8064,
      "componentType": 5126,
      "count": 672,
      "max": [
        1,
        1,
        1
      ],
      "min": [
        -1,
        -1,
        -1
      ],
      "type": "VEC3"
    },
    {
      "bufferView": 3,
      "componentType": 5126,
      "count": 672,
      "max": [
        1,
        1,
        0.70712345838546753,
        1
      ],
      "min": [
        -1,
        -1,
        -0.70719462633132935,
        1
      ],
      "type": "VEC4"
    },
    {
      "bufferView": 1,
      "componentType": 5126,
      "count": 672,
      "max": [
        0.98907202482223511,
        0.98974102735519409
      ],
      "min": [
        0.011001000180840492,
        0.037092000246047974
      ],
      "type": "VEC2"
    },
    {
      "bufferView": 0,
      "componentType": 5125,
      "count": 1320,
      "max": [
        671
      ],
      "min": [
        0
      ],
      "type": "SCALAR"
    },
    {
      "bufferView": 2,
      "byteOffset": 16128,
      "componentType": 5126,
      "count": 431,
      "max": [
        -31.852327346801758,
        5.4230160713195801,
        99.686668395996094
      ],
      "min": [
        -45.696010589599609,
        1.8307689428329468,
        96.664077758789062
      ],
      "type": "VEC3"
    },
    {
      "bufferView": 2,
      "byteOffset": 21300,
      "componentType": 5126,
      "count": 431,
      "max": [
        0.9814266562461853,
        1,
        1
      ],
      "min": [
        -0.99981385469436646,
        -1,
        -1
      ],
      "type": "VEC3"
    },
    {
      "bufferView": 3,
      "byteOffset": 10752,
      "componentType": 5126,
      "count": 431,
      "max": [
        0.99959290027618408,
        0.99691003561019897,
        0.99633938074111938,
        1
      ],
      "min": [
        -0.76604640483856201,
        -1,
        -0.99914014339447021,
        1
      ],
      "type": "VEC4"
    },
    {
      "bufferView": 1,
      "byteOffset": 5376,
      "componentType": 5126,
      "count": 431,
      "max": [
        0.99688601493835449,
        0.98961001634597778
      ],
      "min": [
        0.78377699851989746,
        0.73434197902679443
      ],
      "type": "VEC2"
    },
    {
      "bufferView": 0,
      "byteOffset": 5280,
      "componentType": 5125,
      "count": 1308,
      "max": [
        430
      ],
      "min": [
        0
      ],
      "type": "SCALAR"
    },
    {
      "bufferView": 2,
      "byteOffset": 26472,
      "componentType": 5126,
      "count": 442,
      "max": [
        -31.852327346801758,
        -14.641016006469727,
        99.686668395996094
      ],
      "min": [
        -45.696010589599609,
        -18.110988616943359,
        96.664077758789062
      ],
      "type": "VEC3"
    },
    {
      "bufferView": 2,
      "byteOffset": 31776,
      "componentType": 5126,
      "count": 442,
      "max": [
        0.9814266562461853,
        1,
        1
      ],
      "min": [
        -0.99981385469436646,
        -1,
        -1
      ],
      "type": "VEC3"
    },
    {
      "bufferView": 3,
      "byteOffset": 17648,
      "componentType": 5126,
      "count": 442,
      "max": [
        0.99959290027618408,
        0.99691003561019897,
        0.99633938074111938,
        1
      ],
      "min": [
        -0.76604664325714111,
        -1,
        -0.99914014339447021,
        1
      ],
      "type": "VEC4"
    },
    {
      "bufferView": 1,
      "byteOffset": 8824,
      "componentType": 5126,
      "count": 442,
      "max": [
        0.99688601493835449,
        0.98961001634597778
      ],
      "min": [
        0.78377699851989746,
        0.73434197902679443
      ],
      "type": "VEC2"
    },
    {
      "bufferView": 0,
      "byteOffset": 10512,
      "componentType": 5125,
      "count": 1308,
      "max": [
        441
      ],
      "min": [
        0
      ],
      "type": "SCALAR"
    }
  ],
  "asset": {
    "extras": {
      "author": "KurtSteiner (https://sketchfab.com/KurtSteiner)",
      "license": "CC-BY-4.0 (http://creativecommons.org/licenses/by/4.0/)",
      "source": "https://sketchfab.com/3d-models/static-wood-door-205f23c5c9bd4f5fab13cb38ff2e3306",
      "title": "Static Wood Door"
    },
    "generator": "Sketchfab-6.40.1",
    "version": "2.0"
  },
  "bufferViews": [
    {
      "buffer": 0,
      "byteLength": 15744,
      "byteOffset": 0,
      "name": "floatBufferViews",
      "target": 34963
    },
    {
      "buffer": 0,
      "byteLength": 12360,
      "byteOffset": 15744,
      "byteStride": 8,
      "name": "floatBufferViews",
      "target": 34962
    },
    {
      "buffer": 0,
      "byteLength": 37080,
      "byteOffset": 28104,
      "byteStride": 12,
      "name": "floatBufferViews",
      "target": 34962
    },
    {
      "buffer": 0,
      "byteLength": 24720,
      "byteOffset": 65184,
      "byteStride": 16,
      "name": "floatBufferViews",
      "target": 34962
    }
  ],
  "buffers": [
    {
      "byteLength": 89904,
      "uri": "scene.bin"
    }
  ],
  "images": [
    {
      "uri": "textures/blinn1SG_baseColor.png"
    },
    {
      "uri": "textures/blinn1SG_metallicRoughness.png"
    },
    {
      "uri": "textures/blinn1SG_normal.png"
    },
    {
      "uri": "textures/blinn2SG_baseColor.png"
    },
    {
      "uri": "textures/blinn2SG_metallicRoughness.png"
    },
    {
      "uri": "textures/blinn3SG_normal.png"
    }
  ],
  "materials": [
    {
      "doubleSided": true,
      "name": "blinn1SG",
      "normalTexture": {
        "index": 2,
        "scale": 1,
        "texCoord": 0
      },
      "pbrMetallicRoughness": {
        "baseColorFactor": [
          1,
          1,
          1,
          1
        ],
        "baseColorTexture": {
          "index": 0,
          "texCoord": 0
        },
        "metallicFactor": 1,
        "metallicRoughnessTexture": {
          "index": 1,
          "texCoord": 0
        },
        "roughnessFactor": 1
      }
    },
    {
      "doubleSided": true,
      "name": "blinn2SG",
      "pbrMetallicRoughness": {
        "baseColorFactor": [
          1,
          1,
          1,
          1
        ],
        "baseColorTexture": {
          "index": 3,
          "texCoord": 0
        },
        "metallicFactor": 1,
        "metallicRoughnessTexture": {
          "index": 4,
          "texCoord": 0
        },
        "roughnessFactor": 0.59999999999999998
      }
    },
    {
      "doubleSided": true,
      "name": "blinn3SG",
      "normalTexture": {
        "index": 5,
        "scale": 1,
        "texCoord": 0
      },
      "pbrMetallicRoughness": {
        "baseColorFactor": [
          1,
          1,
          1,
          1
        ],
        "baseColorTexture": {
          "index": 3,
          "texCoord": 0
        },
        "metallicFactor": 1,
        "metallicRoughnessTexture": {
          "index": 4,
          "texCoord": 0
        },
        "roughnessFactor": 0.59999999999999998
      }
    }
  ],
  "meshes": [
    {
      "primitives": [
        {
          "attributes": {
            "NORMAL": 1,
            "POSITION": 0,
            "TANGENT": 2,
            "TEXCOORD_0": 3
          },
          "indices": 4,
          "material": 0,
          "mode": 4
        }
      ]
    },
    {
      "primitives": [
        {
          "attributes": {
            "NORMAL": 6,
            "POSITION": 5,
            "TANGENT": 7,
            "TEXCOORD_0": 8
          },
          "indices": 9,
          "material": 1,
          "mode": 4
        }
      ]
    },
    {
      "primitives": [
        {
          "attributes": {
            "NORMAL": 11,
            "POSITION": 10,
            "TANGENT": 12,
            "TEXCOORD_0": 13
          },
          "indices": 14,
          "material": 2,
          "mode": 4
        }
      ]
    }
  ],
  "nodes": [
    {
      "children": [
        1
      ],
      "name": "RootNode (gltf orientation matrix)",
      "rotation": [
        -0.70710678118654746,
        -0,
        -0,
        0.70710678118654757
      ]
    },
    {
      "children": [
        2
      ],
      "name": "RootNode (model correction matrix)"
    },
    {
      "children": [
        3,
        4,
        5
      ],
      "name": "ee7b6c8a9a114ef39f858a3c4bea5d67.obj.cleaner.materialmerger.gles"
    },
    {
      "mesh": 0,
      "name": ""
    },
    {
      "mesh": 1,
      "name": ""
    },
    {
      "mesh": 2,
      "name": ""
    }
  ],
  "samplers": [
    {
      "magFilter": 9729,
      "minFilter": 9987,
      "wrapS": 10497,
      "wrapT": 10497
    }
  ],
  "scene": 0,
  "scenes": [
    {
      "name": "OSG_Scene",
      "nodes": [
        0
      ]
    }
  ],
  "textures": [
    {
      "sampler": 0,
      "source": 0
    },
    {
      "sampler": 0,
      "source": 1
    },
    {
      "sampler": 0,
      "source": 2
    },
    {
      "sampler": 0,
      "source": 3
    },
    {
      "sampler": 0,
      "source": 4
    },
    {
      "sampler": 0,
      "source": 5
    }
  ]
}

